<?xml version="1.0" encoding="utf-8"?>
<!-- Generator: Adobe Illustrator 28.0.0, SVG Export Plug-In . SVG Version: 6.00 Build 0)  -->
<svg version="1.1" id="レイヤー_1" xmlns="http://www.w3.org/2000/svg" xmlns:xlink="http://www.w3.org/1999/xlink" x="0px"
	 y="0px" viewBox="0 0 18 28" style="enable-background:new 0 0 18 28;" xml:space="preserve">
<style type="text/css">
	.st0{clip-path:url(#SVGID_00000114769493328831994350000009674657370889051036_);}
</style>
<g>
	<g>
		<g>
			<g>
				<defs>
					<path id="SVGID_1_" d="M2.9,27.5c-0.7,0-1.3-0.3-1.8-0.8c-1-1-1-2.6,0-3.6l9.2-9.1L1.1,4.9c-1-1-1-2.6,0-3.6c1-1,2.6-1,3.6,0
						L17.7,14L4.7,26.8C4.2,27.3,3.6,27.5,2.9,27.5z"/>
				</defs>
				<clipPath id="SVGID_00000077309833631117944630000014432395617189687710_">
					<use xlink:href="#SVGID_1_"  style="overflow:visible;"/>
				</clipPath>
			</g>
		</g>
	</g>
	<g>
		<g>
			<g>
				<defs>
					<path id="SVGID_00000059267545217664289490000008129062219654294678_" d="M2.9,27.5c-0.7,0-1.3-0.3-1.8-0.8c-1-1-1-2.6,0-3.6
						l9.2-9.1L1.1,4.9c-1-1-1-2.6,0-3.6c1-1,2.6-1,3.6,0L17.7,14L4.7,26.8C4.2,27.3,3.6,27.5,2.9,27.5z"/>
				</defs>
				<use xlink:href="#SVGID_00000059267545217664289490000008129062219654294678_"  style="overflow:visible;"/>
				<clipPath id="SVGID_00000138571522877644041720000007745432516427297669_">
					<use xlink:href="#SVGID_00000059267545217664289490000008129062219654294678_"  style="overflow:visible;"/>
				</clipPath>
				
					<rect x="0.1" y="0.2" style="clip-path:url(#SVGID_00000138571522877644041720000007745432516427297669_);" width="17.6" height="27.4"/>
				
					<ellipse style="clip-path:url(#SVGID_00000138571522877644041720000007745432516427297669_);" cx="9" cy="14" rx="7.7" ry="7.8"/>
				
					<ellipse style="clip-path:url(#SVGID_00000138571522877644041720000007745432516427297669_);" cx="9" cy="14" rx="7.6" ry="7.7"/>
				
					<ellipse style="clip-path:url(#SVGID_00000138571522877644041720000007745432516427297669_);" cx="9" cy="14" rx="7.5" ry="7.7"/>
				
					<ellipse style="clip-path:url(#SVGID_00000138571522877644041720000007745432516427297669_);" cx="9" cy="14" rx="7.5" ry="7.6"/>
				
					<ellipse style="clip-path:url(#SVGID_00000138571522877644041720000007745432516427297669_);" cx="9" cy="14" rx="7.4" ry="7.5"/>
				
					<ellipse style="clip-path:url(#SVGID_00000138571522877644041720000007745432516427297669_);" cx="9" cy="14" rx="7.3" ry="7.4"/>
				
					<ellipse style="clip-path:url(#SVGID_00000138571522877644041720000007745432516427297669_);" cx="9" cy="14" rx="7.2" ry="7.3"/>
				
					<ellipse style="clip-path:url(#SVGID_00000138571522877644041720000007745432516427297669_);" cx="9" cy="14" rx="7.1" ry="7.3"/>
				
					<ellipse style="clip-path:url(#SVGID_00000138571522877644041720000007745432516427297669_);" cx="9" cy="14" rx="7.1" ry="7.2"/>
				<ellipse style="clip-path:url(#SVGID_00000138571522877644041720000007745432516427297669_);" cx="9" cy="14" rx="7" ry="7.1"/>
				<ellipse style="clip-path:url(#SVGID_00000138571522877644041720000007745432516427297669_);" cx="9" cy="14" rx="6.9" ry="7"/>
				
					<ellipse style="clip-path:url(#SVGID_00000138571522877644041720000007745432516427297669_);" cx="9" cy="14" rx="6.8" ry="6.9"/>
				
					<ellipse style="clip-path:url(#SVGID_00000138571522877644041720000007745432516427297669_);" cx="9" cy="14" rx="6.7" ry="6.9"/>
				
					<ellipse style="clip-path:url(#SVGID_00000138571522877644041720000007745432516427297669_);" cx="9" cy="14" rx="6.7" ry="6.8"/>
				
					<ellipse style="clip-path:url(#SVGID_00000138571522877644041720000007745432516427297669_);" cx="9" cy="14" rx="6.6" ry="6.7"/>
				
					<ellipse style="clip-path:url(#SVGID_00000138571522877644041720000007745432516427297669_);" cx="9" cy="14" rx="6.5" ry="6.6"/>
				
					<ellipse style="clip-path:url(#SVGID_00000138571522877644041720000007745432516427297669_);" cx="9" cy="14" rx="6.4" ry="6.5"/>
				
					<ellipse style="clip-path:url(#SVGID_00000138571522877644041720000007745432516427297669_);" cx="9" cy="14" rx="6.4" ry="6.5"/>
				
					<ellipse style="clip-path:url(#SVGID_00000138571522877644041720000007745432516427297669_);" cx="9" cy="14" rx="6.3" ry="6.4"/>
				
					<ellipse style="clip-path:url(#SVGID_00000138571522877644041720000007745432516427297669_);" cx="9" cy="14" rx="6.2" ry="6.3"/>
				
					<ellipse style="clip-path:url(#SVGID_00000138571522877644041720000007745432516427297669_);" cx="9" cy="14" rx="6.1" ry="6.2"/>
				<ellipse style="clip-path:url(#SVGID_00000138571522877644041720000007745432516427297669_);" cx="9" cy="14" rx="6" ry="6.1"/>
				<ellipse style="clip-path:url(#SVGID_00000138571522877644041720000007745432516427297669_);" cx="9" cy="14" rx="6" ry="6.1"/>
				<ellipse style="clip-path:url(#SVGID_00000138571522877644041720000007745432516427297669_);" cx="9" cy="14" rx="5.9" ry="6"/>
				
					<ellipse style="clip-path:url(#SVGID_00000138571522877644041720000007745432516427297669_);" cx="9" cy="14" rx="5.8" ry="5.9"/>
				
					<ellipse style="clip-path:url(#SVGID_00000138571522877644041720000007745432516427297669_);" cx="9" cy="14" rx="5.7" ry="5.8"/>
				
					<ellipse style="clip-path:url(#SVGID_00000138571522877644041720000007745432516427297669_);" cx="9" cy="14" rx="5.6" ry="5.7"/>
				
					<ellipse style="clip-path:url(#SVGID_00000138571522877644041720000007745432516427297669_);" cx="9" cy="14" rx="5.6" ry="5.7"/>
				
					<ellipse style="clip-path:url(#SVGID_00000138571522877644041720000007745432516427297669_);" cx="9" cy="14" rx="5.5" ry="5.6"/>
				
					<ellipse style="clip-path:url(#SVGID_00000138571522877644041720000007745432516427297669_);" cx="9" cy="14" rx="5.4" ry="5.5"/>
				
					<ellipse style="clip-path:url(#SVGID_00000138571522877644041720000007745432516427297669_);" cx="9" cy="14" rx="5.3" ry="5.4"/>
				
					<ellipse style="clip-path:url(#SVGID_00000138571522877644041720000007745432516427297669_);" cx="9" cy="14" rx="5.3" ry="5.3"/>
				
					<ellipse style="clip-path:url(#SVGID_00000138571522877644041720000007745432516427297669_);" cx="9" cy="14" rx="5.2" ry="5.3"/>
				
					<ellipse style="clip-path:url(#SVGID_00000138571522877644041720000007745432516427297669_);" cx="9" cy="14" rx="5.1" ry="5.2"/>
				<ellipse style="clip-path:url(#SVGID_00000138571522877644041720000007745432516427297669_);" cx="9" cy="14" rx="5" ry="5.1"/>
				<ellipse style="clip-path:url(#SVGID_00000138571522877644041720000007745432516427297669_);" cx="9" cy="14" rx="4.9" ry="5"/>
				
					<ellipse style="clip-path:url(#SVGID_00000138571522877644041720000007745432516427297669_);" cx="9" cy="14" rx="4.9" ry="4.9"/>
				
					<ellipse style="clip-path:url(#SVGID_00000138571522877644041720000007745432516427297669_);" cx="9" cy="14" rx="4.8" ry="4.9"/>
				
					<ellipse style="clip-path:url(#SVGID_00000138571522877644041720000007745432516427297669_);" cx="9" cy="14" rx="4.7" ry="4.8"/>
				
					<ellipse style="clip-path:url(#SVGID_00000138571522877644041720000007745432516427297669_);" cx="9" cy="14" rx="4.6" ry="4.7"/>
				
					<ellipse style="clip-path:url(#SVGID_00000138571522877644041720000007745432516427297669_);" cx="9" cy="14" rx="4.5" ry="4.6"/>
				
					<ellipse style="clip-path:url(#SVGID_00000138571522877644041720000007745432516427297669_);" cx="9" cy="14" rx="4.5" ry="4.5"/>
				
					<ellipse style="clip-path:url(#SVGID_00000138571522877644041720000007745432516427297669_);" cx="9" cy="14" rx="4.4" ry="4.5"/>
				
					<ellipse style="clip-path:url(#SVGID_00000138571522877644041720000007745432516427297669_);" cx="9" cy="14" rx="4.3" ry="4.4"/>
				
					<ellipse style="clip-path:url(#SVGID_00000138571522877644041720000007745432516427297669_);" cx="9" cy="14" rx="4.2" ry="4.3"/>
				
					<ellipse style="clip-path:url(#SVGID_00000138571522877644041720000007745432516427297669_);" cx="9" cy="14" rx="4.2" ry="4.2"/>
				
					<ellipse style="clip-path:url(#SVGID_00000138571522877644041720000007745432516427297669_);" cx="9" cy="14" rx="4.1" ry="4.1"/>
				<ellipse style="clip-path:url(#SVGID_00000138571522877644041720000007745432516427297669_);" cx="9" cy="14" rx="4" ry="4.1"/>
				<ellipse style="clip-path:url(#SVGID_00000138571522877644041720000007745432516427297669_);" cx="9" cy="14" rx="3.9" ry="4"/>
				
					<ellipse style="clip-path:url(#SVGID_00000138571522877644041720000007745432516427297669_);" cx="9" cy="14" rx="3.8" ry="3.9"/>
				
					<ellipse style="clip-path:url(#SVGID_00000138571522877644041720000007745432516427297669_);" cx="9" cy="14" rx="3.8" ry="3.8"/>
				
					<ellipse style="clip-path:url(#SVGID_00000138571522877644041720000007745432516427297669_);" cx="9" cy="14" rx="3.7" ry="3.7"/>
				
					<ellipse style="clip-path:url(#SVGID_00000138571522877644041720000007745432516427297669_);" cx="9" cy="14" rx="3.6" ry="3.7"/>
				
					<ellipse style="clip-path:url(#SVGID_00000138571522877644041720000007745432516427297669_);" cx="9" cy="14" rx="3.5" ry="3.6"/>
				
					<ellipse style="clip-path:url(#SVGID_00000138571522877644041720000007745432516427297669_);" cx="9" cy="14" rx="3.5" ry="3.5"/>
				
					<ellipse style="clip-path:url(#SVGID_00000138571522877644041720000007745432516427297669_);" cx="9" cy="14" rx="3.4" ry="3.4"/>
				
					<ellipse style="clip-path:url(#SVGID_00000138571522877644041720000007745432516427297669_);" cx="9" cy="14" rx="3.3" ry="3.3"/>
				
					<ellipse style="clip-path:url(#SVGID_00000138571522877644041720000007745432516427297669_);" cx="9" cy="14" rx="3.2" ry="3.3"/>
				
					<ellipse style="clip-path:url(#SVGID_00000138571522877644041720000007745432516427297669_);" cx="9" cy="14" rx="3.1" ry="3.2"/>
				
					<ellipse style="clip-path:url(#SVGID_00000138571522877644041720000007745432516427297669_);" cx="9" cy="14" rx="3.1" ry="3.1"/>
				<ellipse style="clip-path:url(#SVGID_00000138571522877644041720000007745432516427297669_);" cx="9" cy="14" rx="3" ry="3"/>
				
					<ellipse style="clip-path:url(#SVGID_00000138571522877644041720000007745432516427297669_);" cx="9" cy="14" rx="2.9" ry="2.9"/>
				
					<ellipse style="clip-path:url(#SVGID_00000138571522877644041720000007745432516427297669_);" cx="9" cy="14" rx="2.8" ry="2.9"/>
				
					<ellipse style="clip-path:url(#SVGID_00000138571522877644041720000007745432516427297669_);" cx="9" cy="14" rx="2.7" ry="2.8"/>
				
					<ellipse style="clip-path:url(#SVGID_00000138571522877644041720000007745432516427297669_);" cx="9" cy="14" rx="2.7" ry="2.7"/>
				
					<ellipse style="clip-path:url(#SVGID_00000138571522877644041720000007745432516427297669_);" cx="9" cy="14" rx="2.6" ry="2.6"/>
				
					<ellipse style="clip-path:url(#SVGID_00000138571522877644041720000007745432516427297669_);" cx="9" cy="14" rx="2.5" ry="2.6"/>
				
					<ellipse style="clip-path:url(#SVGID_00000138571522877644041720000007745432516427297669_);" cx="9" cy="14" rx="2.4" ry="2.5"/>
				
					<ellipse style="clip-path:url(#SVGID_00000138571522877644041720000007745432516427297669_);" cx="9" cy="14" rx="2.4" ry="2.4"/>
				
					<ellipse style="clip-path:url(#SVGID_00000138571522877644041720000007745432516427297669_);" cx="9" cy="14" rx="2.3" ry="2.3"/>
				
					<ellipse style="clip-path:url(#SVGID_00000138571522877644041720000007745432516427297669_);" cx="9" cy="14" rx="2.2" ry="2.2"/>
				
					<ellipse style="clip-path:url(#SVGID_00000138571522877644041720000007745432516427297669_);" cx="9" cy="14" rx="2.1" ry="2.2"/>
				<ellipse style="clip-path:url(#SVGID_00000138571522877644041720000007745432516427297669_);" cx="9" cy="14" rx="2" ry="2.1"/>
				<ellipse style="clip-path:url(#SVGID_00000138571522877644041720000007745432516427297669_);" cx="9" cy="14" rx="2" ry="2"/>
				
					<ellipse style="clip-path:url(#SVGID_00000138571522877644041720000007745432516427297669_);" cx="9" cy="14" rx="1.9" ry="1.9"/>
				
					<ellipse style="clip-path:url(#SVGID_00000138571522877644041720000007745432516427297669_);" cx="9" cy="14" rx="1.8" ry="1.8"/>
				
					<ellipse style="clip-path:url(#SVGID_00000138571522877644041720000007745432516427297669_);" cx="9" cy="14" rx="1.7" ry="1.8"/>
				
					<ellipse style="clip-path:url(#SVGID_00000138571522877644041720000007745432516427297669_);" cx="9" cy="14" rx="1.6" ry="1.7"/>
				
					<ellipse style="clip-path:url(#SVGID_00000138571522877644041720000007745432516427297669_);" cx="9" cy="14" rx="1.6" ry="1.6"/>
				
					<ellipse style="clip-path:url(#SVGID_00000138571522877644041720000007745432516427297669_);" cx="9" cy="14" rx="1.5" ry="1.5"/>
				
					<ellipse style="clip-path:url(#SVGID_00000138571522877644041720000007745432516427297669_);" cx="9" cy="14" rx="1.4" ry="1.4"/>
				
					<ellipse style="clip-path:url(#SVGID_00000138571522877644041720000007745432516427297669_);" cx="9" cy="14" rx="1.3" ry="1.4"/>
				
					<ellipse style="clip-path:url(#SVGID_00000138571522877644041720000007745432516427297669_);" cx="9" cy="14" rx="1.3" ry="1.3"/>
				
					<ellipse style="clip-path:url(#SVGID_00000138571522877644041720000007745432516427297669_);" cx="9" cy="14" rx="1.2" ry="1.2"/>
				
					<ellipse style="clip-path:url(#SVGID_00000138571522877644041720000007745432516427297669_);" cx="9" cy="14" rx="1.1" ry="1.1"/>
				<ellipse style="clip-path:url(#SVGID_00000138571522877644041720000007745432516427297669_);" cx="9" cy="14" rx="1" ry="1"/>
				<ellipse style="clip-path:url(#SVGID_00000138571522877644041720000007745432516427297669_);" cx="9" cy="14" rx="0.9" ry="1"/>
				
					<ellipse style="clip-path:url(#SVGID_00000138571522877644041720000007745432516427297669_);" cx="9" cy="14" rx="0.9" ry="0.9"/>
				
					<ellipse style="clip-path:url(#SVGID_00000138571522877644041720000007745432516427297669_);" cx="9" cy="14" rx="0.8" ry="0.8"/>
				
					<ellipse style="clip-path:url(#SVGID_00000138571522877644041720000007745432516427297669_);" cx="9" cy="14" rx="0.7" ry="0.7"/>
				
					<ellipse style="clip-path:url(#SVGID_00000138571522877644041720000007745432516427297669_);" cx="9" cy="14" rx="0.6" ry="0.6"/>
				
					<ellipse style="clip-path:url(#SVGID_00000138571522877644041720000007745432516427297669_);" cx="9" cy="14" rx="0.5" ry="0.6"/>
				
					<ellipse style="clip-path:url(#SVGID_00000138571522877644041720000007745432516427297669_);" cx="9" cy="14" rx="0.5" ry="0.5"/>
				
					<ellipse style="clip-path:url(#SVGID_00000138571522877644041720000007745432516427297669_);" cx="9" cy="14" rx="0.4" ry="0.4"/>
				
					<ellipse style="clip-path:url(#SVGID_00000138571522877644041720000007745432516427297669_);" cx="9" cy="14" rx="0.3" ry="0.3"/>
				
					<ellipse style="clip-path:url(#SVGID_00000138571522877644041720000007745432516427297669_);" cx="9" cy="14" rx="0.2" ry="0.2"/>
				
					<ellipse style="clip-path:url(#SVGID_00000138571522877644041720000007745432516427297669_);" cx="9" cy="14" rx="0.2" ry="0.2"/>
				<circle style="clip-path:url(#SVGID_00000138571522877644041720000007745432516427297669_);" cx="9" cy="14" r="0.1"/>
			</g>
		</g>
	</g>
	<g>
		<g>
			<g>
				<defs>
					<path id="SVGID_00000103249280544610552990000004790545768140047768_" d="M2.9,27.5c-0.7,0-1.3-0.3-1.8-0.8c-1-1-1-2.6,0-3.6
						l9.2-9.1L1.1,4.9c-1-1-1-2.6,0-3.6c1-1,2.6-1,3.6,0L17.7,14L4.7,26.8C4.2,27.3,3.6,27.5,2.9,27.5z"/>
				</defs>
				<clipPath id="SVGID_00000054987871805665809750000003147395412389653888_">
					<use xlink:href="#SVGID_00000103249280544610552990000004790545768140047768_"  style="overflow:visible;"/>
				</clipPath>
			</g>
		</g>
	</g>
</g>
</svg>
