<?xml version="1.0" encoding="utf-8"?>
<!-- Generator: Adobe Illustrator 28.0.0, SVG Export Plug-In . SVG Version: 6.00 Build 0)  -->
<svg version="1.1" id="レイヤー_1" xmlns="http://www.w3.org/2000/svg" xmlns:xlink="http://www.w3.org/1999/xlink" x="0px"
	 y="0px" viewBox="0 0 12 3" style="enable-background:new 0 0 12 3;" xml:space="preserve">
<style type="text/css">
	.st0{fill:#D70066;}
</style>
<path class="st0" d="M455.7,2.7h-4.5c-0.6,0-1.1-0.5-1.1-1.1s0.5-1.1,1.1-1.1h4.5c0.6,0,1.1,0.5,1.1,1.1S456.4,2.7,455.7,2.7z
	 M443.2,2.7h-4.5c-0.6,0-1.1-0.5-1.1-1.1s0.5-1.1,1.1-1.1h4.5c0.6,0,1.1,0.5,1.1,1.1S443.9,2.7,443.2,2.7z M430.7,2.7h-4.5
	c-0.6,0-1.1-0.5-1.1-1.1s0.5-1.1,1.1-1.1h4.5c0.6,0,1.1,0.5,1.1,1.1S431.4,2.7,430.7,2.7z M418.2,2.7h-4.5c-0.6,0-1.1-0.5-1.1-1.1
	s0.5-1.1,1.1-1.1h4.5c0.6,0,1.1,0.5,1.1,1.1S418.9,2.7,418.2,2.7z M405.7,2.7h-4.5c-0.6,0-1.1-0.5-1.1-1.1s0.5-1.1,1.1-1.1h4.5
	c0.6,0,1.1,0.5,1.1,1.1S406.4,2.7,405.7,2.7z M393.2,2.7h-4.5c-0.6,0-1.1-0.5-1.1-1.1s0.5-1.1,1.1-1.1h4.5c0.6,0,1.1,0.5,1.1,1.1
	S393.8,2.7,393.2,2.7z M380.7,2.7h-4.5c-0.6,0-1.1-0.5-1.1-1.1s0.5-1.1,1.1-1.1h4.5c0.6,0,1.1,0.5,1.1,1.1S381.3,2.7,380.7,2.7z
	 M368.2,2.7h-4.5c-0.6,0-1.1-0.5-1.1-1.1s0.5-1.1,1.1-1.1h4.5c0.6,0,1.1,0.5,1.1,1.1S368.8,2.7,368.2,2.7z M355.7,2.7h-4.5
	c-0.6,0-1.1-0.5-1.1-1.1s0.5-1.1,1.1-1.1h4.5c0.6,0,1.1,0.5,1.1,1.1S356.3,2.7,355.7,2.7z M343.2,2.7h-4.5c-0.6,0-1.1-0.5-1.1-1.1
	s0.5-1.1,1.1-1.1h4.5c0.6,0,1.1,0.5,1.1,1.1S343.8,2.7,343.2,2.7z M330.7,2.7h-4.5c-0.6,0-1.1-0.5-1.1-1.1s0.5-1.1,1.1-1.1h4.5
	c0.6,0,1.1,0.5,1.1,1.1S331.3,2.7,330.7,2.7z M318.2,2.7h-4.5c-0.6,0-1.1-0.5-1.1-1.1s0.5-1.1,1.1-1.1h4.5c0.6,0,1.1,0.5,1.1,1.1
	S318.8,2.7,318.2,2.7z M305.7,2.7h-4.5c-0.6,0-1.1-0.5-1.1-1.1s0.5-1.1,1.1-1.1h4.5c0.6,0,1.1,0.5,1.1,1.1S306.3,2.7,305.7,2.7z
	 M293.2,2.7h-4.5c-0.6,0-1.1-0.5-1.1-1.1s0.5-1.1,1.1-1.1h4.5c0.6,0,1.1,0.5,1.1,1.1S293.8,2.7,293.2,2.7z M280.7,2.7h-4.5
	c-0.6,0-1.1-0.5-1.1-1.1s0.5-1.1,1.1-1.1h4.5c0.6,0,1.1,0.5,1.1,1.1S281.3,2.7,280.7,2.7z M268.2,2.7h-4.5c-0.6,0-1.1-0.5-1.1-1.1
	s0.5-1.1,1.1-1.1h4.5c0.6,0,1.1,0.5,1.1,1.1S268.8,2.7,268.2,2.7z M255.7,2.7h-4.5c-0.6,0-1.1-0.5-1.1-1.1s0.5-1.1,1.1-1.1h4.5
	c0.6,0,1.1,0.5,1.1,1.1S256.3,2.7,255.7,2.7z M243.2,2.7h-4.5c-0.6,0-1.1-0.5-1.1-1.1s0.5-1.1,1.1-1.1h4.5c0.6,0,1.1,0.5,1.1,1.1
	S243.8,2.7,243.2,2.7z M230.7,2.7h-4.5c-0.6,0-1.1-0.5-1.1-1.1s0.5-1.1,1.1-1.1h4.5c0.6,0,1.1,0.5,1.1,1.1S231.3,2.7,230.7,2.7z
	 M218.2,2.7h-4.5c-0.6,0-1.1-0.5-1.1-1.1s0.5-1.1,1.1-1.1h4.5c0.6,0,1.1,0.5,1.1,1.1S218.8,2.7,218.2,2.7z M205.7,2.7h-4.5
	c-0.6,0-1.1-0.5-1.1-1.1s0.5-1.1,1.1-1.1h4.5c0.6,0,1.1,0.5,1.1,1.1S206.3,2.7,205.7,2.7z M193.2,2.7h-4.5c-0.6,0-1.1-0.5-1.1-1.1
	s0.5-1.1,1.1-1.1h4.5c0.6,0,1.1,0.5,1.1,1.1S193.8,2.7,193.2,2.7z M180.7,2.7h-4.5c-0.6,0-1.1-0.5-1.1-1.1s0.5-1.1,1.1-1.1h4.5
	c0.6,0,1.1,0.5,1.1,1.1S181.3,2.7,180.7,2.7z M168.2,2.7h-4.5c-0.6,0-1.1-0.5-1.1-1.1s0.5-1.1,1.1-1.1h4.5c0.6,0,1.1,0.5,1.1,1.1
	S168.8,2.7,168.2,2.7z M155.7,2.7h-4.5c-0.6,0-1.1-0.5-1.1-1.1s0.5-1.1,1.1-1.1h4.5c0.6,0,1.1,0.5,1.1,1.1S156.3,2.7,155.7,2.7z
	 M143.2,2.7h-4.5c-0.6,0-1.1-0.5-1.1-1.1s0.5-1.1,1.1-1.1h4.5c0.6,0,1.1,0.5,1.1,1.1S143.8,2.7,143.2,2.7z M130.7,2.7h-4.5
	c-0.6,0-1.1-0.5-1.1-1.1s0.5-1.1,1.1-1.1h4.5c0.6,0,1.1,0.5,1.1,1.1S131.3,2.7,130.7,2.7z M118.2,2.7h-4.5c-0.6,0-1.1-0.5-1.1-1.1
	s0.5-1.1,1.1-1.1h4.5c0.6,0,1.1,0.5,1.1,1.1S118.8,2.7,118.2,2.7z M105.7,2.7h-4.5c-0.6,0-1.1-0.5-1.1-1.1s0.5-1.1,1.1-1.1h4.5
	c0.6,0,1.1,0.5,1.1,1.1S106.3,2.7,105.7,2.7z M93.2,2.7h-4.5c-0.6,0-1.1-0.5-1.1-1.1s0.5-1.1,1.1-1.1h4.5c0.6,0,1.1,0.5,1.1,1.1
	S93.8,2.7,93.2,2.7z M80.7,2.7h-4.5c-0.6,0-1.1-0.5-1.1-1.1s0.5-1.1,1.1-1.1h4.5c0.6,0,1.1,0.5,1.1,1.1S81.3,2.7,80.7,2.7z
	 M68.2,2.7h-4.5c-0.6,0-1.1-0.5-1.1-1.1s0.5-1.1,1.1-1.1h4.5c0.6,0,1.1,0.5,1.1,1.1S68.8,2.7,68.2,2.7z M55.7,2.7h-4.5
	c-0.6,0-1.1-0.5-1.1-1.1s0.5-1.1,1.1-1.1h4.5c0.6,0,1.1,0.5,1.1,1.1S56.3,2.7,55.7,2.7z M43.2,2.7h-4.5c-0.6,0-1.1-0.5-1.1-1.1
	s0.5-1.1,1.1-1.1h4.5c0.6,0,1.1,0.5,1.1,1.1S43.8,2.7,43.2,2.7z M30.7,2.7h-4.5c-0.6,0-1.1-0.5-1.1-1.1s0.5-1.1,1.1-1.1h4.5
	c0.6,0,1.1,0.5,1.1,1.1S31.3,2.7,30.7,2.7z M5.7,2.7H1.2C0.5,2.7,0,2.1,0,1.5s0.5-1.1,1.1-1.1h4.5c0.6,0,1.1,0.5,1.1,1.1
	S6.3,2.7,5.7,2.7z M-6.8,2.7h-4.5c-0.6,0-1.1-0.5-1.1-1.1s0.5-1.1,1.1-1.1h4.5c0.6,0,1.1,0.5,1.1,1.1S-6.2,2.7-6.8,2.7z M-19.3,2.7
	h-4.5c-0.6,0-1.1-0.5-1.1-1.1s0.5-1.1,1.1-1.1h4.5c0.6,0,1.1,0.5,1.1,1.1S-18.7,2.7-19.3,2.7z M-31.8,2.7h-4.5
	c-0.6,0-1.1-0.5-1.1-1.1s0.5-1.1,1.1-1.1h4.5c0.6,0,1.1,0.5,1.1,1.1S-31.2,2.7-31.8,2.7z M-44.3,2.7h-4.5c-0.6,0-1.1-0.5-1.1-1.1
	s0.5-1.1,1.1-1.1h4.5c0.6,0,1.1,0.5,1.1,1.1S-43.7,2.7-44.3,2.7z M-56.8,2.7h-4.5c-0.6,0-1.1-0.5-1.1-1.1s0.5-1.1,1.1-1.1h4.5
	c0.6,0,1.1,0.5,1.1,1.1S-56.2,2.7-56.8,2.7z M-69.3,2.7h-4.5c-0.6,0-1.1-0.5-1.1-1.1s0.5-1.1,1.1-1.1h4.5c0.6,0,1.1,0.5,1.1,1.1
	S-68.7,2.7-69.3,2.7z M-81.8,2.7h-4.5c-0.6,0-1.1-0.5-1.1-1.1s0.5-1.1,1.1-1.1h4.5c0.6,0,1.1,0.5,1.1,1.1S-81.2,2.7-81.8,2.7z
	 M-94.3,2.7h-4.5c-0.6,0-1.1-0.5-1.1-1.1s0.5-1.1,1.1-1.1h4.5c0.6,0,1.1,0.5,1.1,1.1S-93.7,2.7-94.3,2.7z M-106.8,2.7h-4.5
	c-0.6,0-1.1-0.5-1.1-1.1s0.5-1.1,1.1-1.1h4.5c0.6,0,1.1,0.5,1.1,1.1S-106.2,2.7-106.8,2.7z M-119.3,2.7h-4.5c-0.6,0-1.1-0.5-1.1-1.1
	s0.5-1.1,1.1-1.1h4.5c0.6,0,1.1,0.5,1.1,1.1S-118.7,2.7-119.3,2.7z M-131.8,2.7h-4.5c-0.6,0-1.1-0.5-1.1-1.1s0.5-1.1,1.1-1.1h4.5
	c0.6,0,1.1,0.5,1.1,1.1S-131.2,2.7-131.8,2.7z M-144.3,2.7h-4.5c-0.6,0-1.1-0.5-1.1-1.1s0.5-1.1,1.1-1.1h4.5c0.6,0,1.1,0.5,1.1,1.1
	S-143.7,2.7-144.3,2.7z M-156.8,2.7h-4.5c-0.6,0-1.1-0.5-1.1-1.1s0.5-1.1,1.1-1.1h4.5c0.6,0,1.1,0.5,1.1,1.1S-156.2,2.7-156.8,2.7z
	 M-169.3,2.7h-4.5c-0.6,0-1.1-0.5-1.1-1.1s0.5-1.1,1.1-1.1h4.5c0.6,0,1.1,0.5,1.1,1.1S-168.7,2.7-169.3,2.7z M-181.8,2.7h-4.5
	c-0.6,0-1.1-0.5-1.1-1.1s0.5-1.1,1.1-1.1h4.5c0.6,0,1.1,0.5,1.1,1.1S-181.2,2.7-181.8,2.7z M-194.3,2.7h-4.5c-0.6,0-1.1-0.5-1.1-1.1
	s0.5-1.1,1.1-1.1h4.5c0.6,0,1.1,0.5,1.1,1.1S-193.7,2.7-194.3,2.7z M-206.8,2.7h-4.5c-0.6,0-1.1-0.5-1.1-1.1s0.5-1.1,1.1-1.1h4.5
	c0.6,0,1.1,0.5,1.1,1.1S-206.2,2.7-206.8,2.7z M-219.3,2.7h-4.5c-0.6,0-1.1-0.5-1.1-1.1s0.5-1.1,1.1-1.1h4.5c0.6,0,1.1,0.5,1.1,1.1
	S-218.7,2.7-219.3,2.7z M-231.8,2.7h-4.5c-0.6,0-1.1-0.5-1.1-1.1s0.5-1.1,1.1-1.1h4.5c0.6,0,1.1,0.5,1.1,1.1S-231.2,2.7-231.8,2.7z
	 M-244.3,2.7h-4.5c-0.6,0-1.1-0.5-1.1-1.1s0.5-1.1,1.1-1.1h4.5c0.6,0,1.1,0.5,1.1,1.1S-243.7,2.7-244.3,2.7z M-256.8,2.7h-4.5
	c-0.6,0-1.1-0.5-1.1-1.1s0.5-1.1,1.1-1.1h4.5c0.6,0,1.1,0.5,1.1,1.1S-256.2,2.7-256.8,2.7z M-269.3,2.7h-4.5c-0.6,0-1.1-0.5-1.1-1.1
	s0.5-1.1,1.1-1.1h4.5c0.6,0,1.1,0.5,1.1,1.1S-268.7,2.7-269.3,2.7z M-281.8,2.7h-4.5c-0.6,0-1.1-0.5-1.1-1.1s0.5-1.1,1.1-1.1h4.5
	c0.6,0,1.1,0.5,1.1,1.1S-281.2,2.7-281.8,2.7z M-294.3,2.7h-4.5c-0.6,0-1.1-0.5-1.1-1.1s0.5-1.1,1.1-1.1h4.5c0.6,0,1.1,0.5,1.1,1.1
	S-293.7,2.7-294.3,2.7z M-306.8,2.7h-4.5c-0.6,0-1.1-0.5-1.1-1.1s0.5-1.1,1.1-1.1h4.5c0.6,0,1.1,0.5,1.1,1.1S-306.2,2.7-306.8,2.7z
	 M-319.3,2.7h-4.5c-0.6,0-1.1-0.5-1.1-1.1s0.5-1.1,1.1-1.1h4.5c0.6,0,1.1,0.5,1.1,1.1S-318.7,2.7-319.3,2.7z M-331.8,2.7h-4.5
	c-0.6,0-1.1-0.5-1.1-1.1s0.5-1.1,1.1-1.1h4.5c0.6,0,1.1,0.5,1.1,1.1S-331.2,2.7-331.8,2.7z M-344.3,2.7h-4.5c-0.6,0-1.1-0.5-1.1-1.1
	s0.5-1.1,1.1-1.1h4.5c0.6,0,1.1,0.5,1.1,1.1S-343.7,2.7-344.3,2.7z M-356.8,2.7h-4.5c-0.6,0-1.1-0.5-1.1-1.1s0.5-1.1,1.1-1.1h4.5
	c0.6,0,1.1,0.5,1.1,1.1S-356.2,2.7-356.8,2.7z M-369.3,2.7h-4.5c-0.6,0-1.1-0.5-1.1-1.1s0.5-1.1,1.1-1.1h4.5c0.6,0,1.1,0.5,1.1,1.1
	S-368.7,2.7-369.3,2.7z M-381.8,2.7h-4.5c-0.6,0-1.1-0.5-1.1-1.1s0.5-1.1,1.1-1.1h4.5c0.6,0,1.1,0.5,1.1,1.1S-381.2,2.7-381.8,2.7z
	 M-394.3,2.7h-4.5c-0.6,0-1.1-0.5-1.1-1.1s0.5-1.1,1.1-1.1h4.5c0.6,0,1.1,0.5,1.1,1.1S-393.7,2.7-394.3,2.7z M-406.8,2.7h-4.5
	c-0.6,0-1.1-0.5-1.1-1.1s0.5-1.1,1.1-1.1h4.5c0.6,0,1.1,0.5,1.1,1.1S-406.2,2.7-406.8,2.7z M-419.3,2.7h-4.5c-0.6,0-1.1-0.5-1.1-1.1
	s0.5-1.1,1.1-1.1h4.5c0.6,0,1.1,0.5,1.1,1.1S-418.7,2.7-419.3,2.7z M-431.8,2.7h-4.5c-0.6,0-1.1-0.5-1.1-1.1s0.5-1.1,1.1-1.1h4.5
	c0.6,0,1.1,0.5,1.1,1.1S-431.2,2.7-431.8,2.7z M-444.3,2.7h-1.2c-0.6,0-1.1-0.5-1.1-1.1s0.5-1.1,1.1-1.1h1.2c0.6,0,1.1,0.5,1.1,1.1
	S-443.7,2.7-444.3,2.7z"/>
</svg>
