<?xml version="1.0" encoding="utf-8"?>
<!-- Generator: Adobe Illustrator 28.0.0, SVG Export Plug-In . SVG Version: 6.00 Build 0)  -->
<svg version="1.1" id="レイヤー_1" xmlns="http://www.w3.org/2000/svg" xmlns:xlink="http://www.w3.org/1999/xlink" x="0px"
	 y="0px" viewBox="0 0 35 35" style="enable-background:new 0 0 35 35;" xml:space="preserve">
<style type="text/css">
	.st0{fill:#E05374;}
</style>
<path id="Initiator" class="st0" d="M33.6,17.6c0-8.9-7.2-16.1-16.1-16.1S1.4,8.7,1.4,17.6c0,7.5,5.2,13.9,12.2,15.6V22.5h-3.3v-4.9
	h3.3v-2.1c0-5.5,2.5-8,7.8-8c1,0,2.8,0.2,3.5,0.4v4.4c-0.4,0-1-0.1-1.9-0.1c-2.6,0-3.7,1-3.7,3.6v1.7h5.2l-0.9,4.9h-4.3v11
	C27.4,32.5,33.6,25.8,33.6,17.6z"/>
</svg>
