<?xml version="1.0" encoding="utf-8"?>
<!-- Generator: Adobe Illustrator 28.0.0, SVG Export Plug-In . SVG Version: 6.00 Build 0)  -->
<svg version="1.1" id="レイヤー_1" xmlns="http://www.w3.org/2000/svg" xmlns:xlink="http://www.w3.org/1999/xlink" x="0px"
	 y="0px" viewBox="0 0 35 35" style="enable-background:new 0 0 35 35;" xml:space="preserve">
<style type="text/css">
	.st0{fill:#E05374;}
</style>
<g>
	<path class="st0" d="M17.5,4.4c4.3,0,4.8,0,6.5,0.1c1.6,0.1,2.4,0.3,3,0.6c0.7,0.3,1.3,0.6,1.8,1.2c0.6,0.6,0.9,1.1,1.2,1.8
		c0.2,0.6,0.5,1.4,0.6,3c0.1,1.7,0.1,2.2,0.1,6.5s0,4.8-0.1,6.5c-0.1,1.6-0.3,2.4-0.6,3c-0.3,0.7-0.6,1.3-1.2,1.8
		c-0.6,0.6-1.1,0.9-1.8,1.2c-0.6,0.2-1.4,0.5-3,0.6c-1.7,0.1-2.2,0.1-6.5,0.1s-4.8,0-6.5-0.1c-1.6-0.1-2.4-0.3-3-0.6
		c-0.7-0.3-1.3-0.6-1.8-1.2c-0.6-0.6-0.9-1.1-1.2-1.8c-0.2-0.6-0.5-1.4-0.6-3c-0.1-1.7-0.1-2.2-0.1-6.5s0-4.8,0.1-6.5
		c0.1-1.6,0.3-2.4,0.6-3c0.3-0.7,0.6-1.3,1.2-1.8C6.8,5.7,7.3,5.3,8.1,5c0.6-0.2,1.4-0.5,3-0.6C12.7,4.4,13.2,4.4,17.5,4.4
		 M17.5,1.5c-4.3,0-4.9,0-6.6,0.1C9.2,1.7,8,1.9,7,2.3C6,2.7,5.1,3.3,4.2,4.2C3.3,5.1,2.7,6,2.3,7c-0.4,1-0.7,2.2-0.7,3.9
		c-0.1,1.7-0.1,2.3-0.1,6.6c0,4.3,0,4.9,0.1,6.6C1.7,25.8,1.9,27,2.3,28c0.4,1.1,1,1.9,1.8,2.8C5.1,31.7,6,32.3,7,32.7
		c1,0.4,2.2,0.7,3.9,0.7c1.7,0.1,2.3,0.1,6.6,0.1s4.9,0,6.6-0.1c1.7-0.1,2.9-0.3,3.9-0.7c1.1-0.4,1.9-1,2.8-1.8
		c0.9-0.9,1.4-1.8,1.8-2.8c0.4-1,0.7-2.2,0.7-3.9c0.1-1.7,0.1-2.3,0.1-6.6s0-4.9-0.1-6.6C33.3,9.2,33.1,8,32.7,7
		c-0.4-1.1-1-1.9-1.8-2.8C29.9,3.3,29,2.7,28,2.3c-1-0.4-2.2-0.7-3.9-0.7C22.4,1.5,21.8,1.5,17.5,1.5L17.5,1.5z"/>
	<path class="st0" d="M17.5,9.3c-4.5,0-8.2,3.7-8.2,8.2c0,4.5,3.7,8.2,8.2,8.2s8.2-3.7,8.2-8.2C25.7,13,22,9.3,17.5,9.3z M17.5,22.8
		c-2.9,0-5.3-2.4-5.3-5.3c0-2.9,2.4-5.3,5.3-5.3c2.9,0,5.3,2.4,5.3,5.3C22.8,20.4,20.4,22.8,17.5,22.8z"/>
	<circle class="st0" cx="26" cy="9" r="1.9"/>
</g>
</svg>
