<?xml version="1.0" encoding="utf-8"?>
<!-- Generator: Adobe Illustrator 28.0.0, SVG Export Plug-In . SVG Version: 6.00 Build 0)  -->
<svg version="1.1" id="レイヤー_1" xmlns="http://www.w3.org/2000/svg" xmlns:xlink="http://www.w3.org/1999/xlink" x="0px"
	 y="0px" viewBox="0 0 40 40" style="enable-background:new 0 0 40 40;" xml:space="preserve">
<style type="text/css">
	.st0{fill:#FFFFFF;}
</style>
<g>
	<path class="st0" d="M20,3.9c5.2,0,5.9,0,7.9,0.1c1.9,0.1,3,0.4,3.6,0.7c0.9,0.4,1.6,0.8,2.3,1.5c0.7,0.7,1.1,1.3,1.5,2.3
		c0.3,0.7,0.6,1.7,0.7,3.6c0.1,2.1,0.1,2.7,0.1,7.9s0,5.9-0.1,7.9c-0.1,1.9-0.4,3-0.7,3.6c-0.4,0.9-0.8,1.6-1.5,2.3
		c-0.7,0.7-1.3,1.1-2.3,1.5c-0.7,0.3-1.7,0.6-3.6,0.7c-2.1,0.1-2.7,0.1-7.9,0.1s-5.9,0-7.9-0.1c-1.9-0.1-3-0.4-3.6-0.7
		c-0.9-0.4-1.6-0.8-2.3-1.5c-0.7-0.7-1.1-1.3-1.5-2.3c-0.3-0.7-0.6-1.7-0.7-3.6c-0.1-2.1-0.1-2.7-0.1-7.9s0-5.9,0.1-7.9
		c0.1-1.9,0.4-3,0.7-3.6C5,7.5,5.5,6.8,6.2,6.2C6.8,5.5,7.5,5,8.4,4.7c0.7-0.3,1.7-0.6,3.6-0.7C14.1,3.9,14.8,3.9,20,3.9 M20,0.4
		c-5.3,0-6,0-8.1,0.1C9.8,0.6,8.4,0.9,7.1,1.4C5.8,1.9,4.7,2.6,3.7,3.7C2.6,4.7,1.9,5.8,1.4,7.1c-0.5,1.2-0.8,2.7-0.9,4.8
		C0.4,14,0.4,14.7,0.4,20c0,5.3,0,6,0.1,8.1c0.1,2.1,0.4,3.5,0.9,4.8c0.5,1.3,1.2,2.4,2.3,3.5c1.1,1.1,2.2,1.8,3.5,2.3
		c1.2,0.5,2.7,0.8,4.8,0.9c2.1,0.1,2.8,0.1,8.1,0.1s6,0,8.1-0.1c2.1-0.1,3.5-0.4,4.8-0.9c1.3-0.5,2.4-1.2,3.5-2.3
		c1.1-1.1,1.8-2.2,2.3-3.5c0.5-1.2,0.8-2.7,0.9-4.8c0.1-2.1,0.1-2.8,0.1-8.1s0-6-0.1-8.1c-0.1-2.1-0.4-3.5-0.9-4.8
		c-0.5-1.3-1.2-2.4-2.3-3.5c-1.1-1.1-2.2-1.8-3.5-2.3c-1.2-0.5-2.7-0.8-4.8-0.9C26,0.4,25.3,0.4,20,0.4L20,0.4z"/>
	<path class="st0" d="M20,9.9C14.4,9.9,9.9,14.4,9.9,20S14.4,30.1,20,30.1S30.1,25.6,30.1,20S25.6,9.9,20,9.9z M20,26.5
		c-3.6,0-6.5-2.9-6.5-6.5c0-3.6,2.9-6.5,6.5-6.5c3.6,0,6.5,2.9,6.5,6.5C26.5,23.6,23.6,26.5,20,26.5z"/>
	<circle class="st0" cx="30.5" cy="9.5" r="2.4"/>
</g>
</svg>
