<?xml version="1.0" encoding="utf-8"?>
<!-- Generator: Adobe Illustrator 28.0.0, SVG Export Plug-In . SVG Version: 6.00 Build 0)  -->
<svg version="1.1" id="レイヤー_1" xmlns="http://www.w3.org/2000/svg" xmlns:xlink="http://www.w3.org/1999/xlink" x="0px"
	 y="0px" viewBox="0 0 35 35" style="enable-background:new 0 0 35 35;" xml:space="preserve">
<style type="text/css">
	.st0{fill:#E05374;}
</style>
<g transform="translate(1.4065934065934016 1.4065934065934016) scale(2.81 2.81)">
	<path class="st0" d="M10.9,2.8c-0.7,0-1.3-0.2-1.8-0.6C8.5,1.8,8.1,1.1,8,0.4c0-0.2-0.1-0.4-0.1-0.6H6v5.2L6,8
		c0,0.8-0.5,1.4-1.2,1.6C4.6,9.7,4.4,9.7,4.2,9.7c-0.3,0-0.6-0.1-0.8-0.2C2.9,9.2,2.5,8.6,2.5,8c0-1,0.8-1.8,1.7-1.8
		c0.2,0,0.4,0,0.5,0.1V4.9V4.4c-0.2,0-0.4,0-0.6,0c-1.1,0-2.1,0.4-2.8,1.2C0.9,6.2,0.6,6.9,0.6,7.7c-0.1,1.1,0.3,2.1,1.1,2.8
		c0.1,0.1,0.2,0.2,0.3,0.3c0.6,0.5,1.4,0.8,2.3,0.8c0.2,0,0.4,0,0.6,0c0.8-0.1,1.5-0.5,2-1C7.5,9.9,7.9,8.9,7.9,8l0-4.3
		C8.2,3.9,8.6,4.2,9,4.3c0.6,0.3,1.2,0.4,1.9,0.4V3.3L10.9,2.8C10.9,2.8,10.9,2.8,10.9,2.8L10.9,2.8z"/>
</g>
</svg>
