<?xml version="1.0" encoding="utf-8"?>
<!-- Generator: Adobe Illustrator 28.0.0, SVG Export Plug-In . SVG Version: 6.00 Build 0)  -->
<svg version="1.1" id="レイヤー_1" xmlns="http://www.w3.org/2000/svg" xmlns:xlink="http://www.w3.org/1999/xlink" x="0px"
	 y="0px" viewBox="0 0 35 35" style="enable-background:new 0 0 35 35;" xml:space="preserve">
<style type="text/css">
	.st0{fill:#E05374;}
</style>
<path class="st0" d="M35,17.5c0,0,0,5.7-0.7,8.4c-0.4,1.5-1.6,2.7-3.1,3.1c-2.7,0.7-13.7,0.7-13.7,0.7S6.6,29.8,3.8,29
	c-1.5-0.4-2.7-1.6-3.1-3.1C0,23.2,0,17.5,0,17.5s0-5.7,0.7-8.4C1.1,7.6,2.3,6.4,3.8,6c2.7-0.7,13.7-0.7,13.7-0.7s10.9,0,13.7,0.7
	c1.5,0.4,2.7,1.6,3.1,3.1C35,11.8,35,17.5,35,17.5z M14,22.7l9.1-5.2L14,12.2V22.7z"/>
<path id="Initiator" class="st0" d="M125.8,79.3c0-8.9-7.2-16.1-16.1-16.1s-16.1,7.2-16.1,16.1c0,7.5,5.2,13.9,12.2,15.6V84.2h-3.3
	v-4.9h3.3v-2.1c0-5.5,2.5-8,7.8-8c1,0,2.8,0.2,3.5,0.4v4.4c-0.4,0-1-0.1-1.9-0.1c-2.6,0-3.7,1-3.7,3.6v1.7h5.2l-0.9,4.9h-4.3v11
	C119.6,94.3,125.8,87.5,125.8,79.3z"/>
</svg>
